<?xml version="1.0" standalone="no"?><!DOCTYPE svg PUBLIC "-//W3C//DTD SVG 1.1//EN" "http://www.w3.org/Graphics/SVG/1.1/DTD/svg11.dtd"><svg t="1705141768637" class="icon" viewBox="0 0 1024 1024" version="1.1" xmlns="http://www.w3.org/2000/svg" p-id="4264" width="32" height="32" xmlns:xlink="http://www.w3.org/1999/xlink"><path d="M860.586667 488.32c86.613333-102.826667 79.36-168.746667 57.813333-205.866667s-68.053333-71.253333-183.68-56.32c-6.613333-5.12-13.013333-10.24-19.84-14.933333a358.186667 358.186667 0 0 0-61.653333-33.28 346.453333 346.453333 0 0 0-68.266667-21.333333 365.226667 365.226667 0 0 0-145.92 0 346.453333 346.453333 0 0 0-68.266667 21.333333 358.186667 358.186667 0 0 0-61.653333 33.28 372.693333 372.693333 0 0 0-97.92 97.92 358.186667 358.186667 0 0 0-33.28 61.653333 346.453333 346.453333 0 0 0-21.333333 68.266667A362.666667 362.666667 0 0 0 149.333333 512a386.133333 386.133333 0 0 0 3.413334 47.146667C77.653333 654.293333 85.333333 716.16 106.666667 751.786667c17.066667 29.44 53.973333 60.16 133.973333 60.16a399.146667 399.146667 0 0 0 61.653333-5.333334c2.56 2.133333 5.12 4.266667 7.893334 6.186667a358.186667 358.186667 0 0 0 61.653333 33.28 346.453333 346.453333 0 0 0 68.266667 21.333333 360.106667 360.106667 0 0 0 145.92 0 346.453333 346.453333 0 0 0 68.266666-21.333333 358.186667 358.186667 0 0 0 61.653334-33.28 372.693333 372.693333 0 0 0 97.92-97.92 358.186667 358.186667 0 0 0 33.28-61.653333A42.666667 42.666667 0 1 0 768 619.946667a288 288 0 0 1-25.6 47.146666 284.16 284.16 0 0 1-74.88 74.88A288 288 0 0 1 619.946667 768a277.333333 277.333333 0 0 1-52.053334 16.213333 281.813333 281.813333 0 0 1-111.786666 0 289.066667 289.066667 0 0 1-32.213334-8.96 1103.573333 1103.573333 0 0 0 186.666667-86.826666 952.32 952.32 0 0 0 250.026667-200.106667zM179.413333 709.12a51.626667 51.626667 0 0 1 5.546667-41.386667 362.666667 362.666667 0 0 0 26.24 47.146667c2.56 3.626667 5.333333 6.826667 7.893333 10.453333-21.76-2.346667-35.2-8.533333-39.68-16.213333z m144.426667 6.186667c-2.773333-2.56-5.546667-4.693333-7.893333-7.253334a283.52 283.52 0 0 1-33.92-40.96A288 288 0 0 1 256 619.946667a277.333333 277.333333 0 0 1-16.213333-52.053334 284.373333 284.373333 0 0 1 0-111.786666 277.333333 277.333333 0 0 1 16.213333-52.053334 288 288 0 0 1 25.6-47.146666 284.16 284.16 0 0 1 74.88-74.88A288 288 0 0 1 404.053333 256a277.333333 277.333333 0 0 1 52.053334-16.213333 281.813333 281.813333 0 0 1 111.786666 0 277.333333 277.333333 0 0 1 52.053334 16.213333 288 288 0 0 1 47.146666 25.6 284.16 284.16 0 0 1 74.88 74.88 42.666667 42.666667 0 0 0 71.466667-46.506667 45.226667 45.226667 0 0 1 31.146667 14.72c8.106667 14.293333-3.626667 54.186667-49.28 108.373334a874.666667 874.666667 0 0 1-227.413334 180.693333 925.44 925.44 0 0 1-244.053333 101.546667z" fill="#707070" p-id="4265"></path></svg>