<?xml version="1.0" standalone="no"?><!DOCTYPE svg PUBLIC "-//W3C//DTD SVG 1.1//EN" "http://www.w3.org/Graphics/SVG/1.1/DTD/svg11.dtd"><svg t="1718457224361" class="icon" viewBox="0 0 1024 1024" version="1.1" xmlns="http://www.w3.org/2000/svg" p-id="4321" xmlns:xlink="http://www.w3.org/1999/xlink" width="256" height="256"><path d="M512 992A480 480 0 1 1 992 512 480.554667 480.554667 0 0 1 512 992z m0-896A416 416 0 1 0 928 512 416.469333 416.469333 0 0 0 512 96z" fill="#bfbfbf" p-id="4322"></path><path d="M591.232 651.477333l-100.437333-100.437333a64 64 0 0 1-18.773334-45.482667V299.52a39.978667 39.978667 0 0 1 40.021334-39.978667 39.978667 39.978667 0 0 1 40.021333 40.021334v192.810666a16 16 0 0 0 4.693333 11.306667l91.093334 91.093333a39.978667 39.978667 0 0 1 0 56.576 39.978667 39.978667 0 0 1-56.618667 0.128z" fill="#bfbfbf" p-id="4323"></path></svg>