<?xml version="1.0" standalone="no"?><!DOCTYPE svg PUBLIC "-//W3C//DTD SVG 1.1//EN" "http://www.w3.org/Graphics/SVG/1.1/DTD/svg11.dtd"><svg t="1705132535173" class="icon" viewBox="0 0 1024 1024" version="1.1" xmlns="http://www.w3.org/2000/svg" p-id="4226" width="16" height="16" xmlns:xlink="http://www.w3.org/1999/xlink"><path d="M938.286 879.729 708.553 649.993c48.577-60.956 77.624-138.171 77.624-222.179C786.177 230.754 626.428 71 429.363 71 232.296 71 72.548 230.754 72.548 427.814c0 197.067 159.754 356.82 356.815 356.82 81.403 0 156.42-27.278 216.461-73.163l230.36 230.36c8.58 8.578 19.816 12.868 31.052 12.868 11.236 0 22.472-4.29 31.05-12.868C955.44 924.677 955.44 896.881 938.286 879.729L938.286 879.729zM154.575 427.814c0-151.758 123.029-274.783 274.788-274.783 151.762 0 274.787 123.025 274.787 274.783 0 151.764-123.025 274.794-274.787 274.794C277.604 702.608 154.575 579.578 154.575 427.814L154.575 427.814zM282.153 290.771c-9.172-4.961-20.621-1.543-25.578 7.628-20.646 38.193-33.226 79.643-37.392 123.209-0.995 10.375 6.614 19.591 16.989 20.586 0.612 0.055 1.219 0.085 1.822 0.085 9.614 0 17.83-7.311 18.764-17.079 3.683-38.505 14.795-75.128 33.021-108.857C294.737 307.178 291.318 295.728 282.153 290.771L282.153 290.771zM282.153 290.771" fill="#dcdfe6" p-id="4227"></path></svg>